<svg width="24" height="24" viewBox="0 0 24 24" fill="none" xmlns="http://www.w3.org/2000/svg">
    <path fill-rule="evenodd" clip-rule="evenodd" d="M14.5957 5.03179C13.9556 5.80483 12.8805 6.38462 12.0229 6.38462C11.9263 6.38462 11.8297 6.37254 11.7693 6.36046C11.7572 6.31214 11.733 6.1672 11.733 6.02225C11.733 5.03179 12.2283 4.06548 12.7718 3.44946C13.4603 2.64018 14.6078 2.03624 15.562 2C15.5862 2.10871 15.5983 2.24158 15.5983 2.37444C15.5983 3.35283 15.1755 4.33121 14.5957 5.03179ZM10.3951 20.6399C9.96463 20.8248 9.55671 21 9.00323 21C7.8195 21 6.99814 19.9129 6.056 18.5842C4.95682 17.014 4.06299 14.5861 4.06299 12.2912C4.06299 8.59504 6.46668 6.63827 8.83413 6.63827C9.52512 6.63827 10.1565 6.89164 10.7179 7.11693C11.1673 7.29728 11.5719 7.45963 11.9263 7.45963C12.2337 7.45963 12.6169 7.30823 13.0634 7.13177C13.6871 6.88531 14.4345 6.58996 15.2721 6.58996C15.8036 6.58996 17.7483 6.63827 19.0287 8.47425C19.0213 8.47996 19.0057 8.49029 18.9829 8.50535C18.6678 8.71332 16.9873 9.82269 16.9873 12.0979C16.9873 14.9123 19.4393 15.9148 19.5239 15.939C19.5217 15.9444 19.5167 15.9599 19.5088 15.9845C19.4282 16.234 19.0439 17.4232 18.2194 18.6325C17.4101 19.7921 16.5525 20.9758 15.2721 20.9758C14.6411 20.9758 14.239 20.7978 13.8238 20.6139C13.3807 20.4177 12.9228 20.2149 12.1558 20.2149C11.3847 20.2149 10.8758 20.4334 10.3951 20.6399Z" fill="white"/>
</svg>
